Coordinates
version=1
nRows=9
nColumns=63
inDegrees=yes

Units are S.I. units (second, meters, Newtons, ...)
If the header above contains a line with 'inDegrees', this indicates whether rotational values are in degrees (yes) or radians (no).

endheader
time	pelvis_tilt	pelvis_list	pelvis_rotation	pelvis_tx	pelvis_ty	pelvis_tz	hip_flexion_r	hip_adduction_r	hip_rotation_r	knee_angle_r	knee_angle_r_beta	ankle_angle_r	subtalar_angle_r	mtp_angle_r	hip_flexion_l	hip_adduction_l	hip_rotation_l	knee_angle_l	knee_angle_l_beta	ankle_angle_l	subtalar_angle_l	mtp_angle_l	L5_S1_Flex_Ext	L5_S1_Lat_Bending	L5_S1_axial_rotation	L4_L5_Flex_Ext	L4_L5_Lat_Bending	L4_L5_axial_rotation	L3_L4_Flex_Ext	L3_L4_Lat_Bending	L3_L4_axial_rotation	L2_L3_Flex_Ext	L2_L3_Lat_Bending	L2_L3_axial_rotation	L1_L2_Flex_Ext	L1_L2_Lat_Bending	L1_L2_axial_rotation	L1_T12_Flex_Ext	L1_T12_Lat_Bending	L1_T12_axial_rotation	Abs_r3	Abs_r2	Abs_r1	Abs_t1	Abs_t2	neck_flexion	neck_bending	neck_rotation	arm_flex_r	arm_add_r	arm_rot_r	elbow_flex_r	pro_sup_r	wrist_flex_r	wrist_dev_r	arm_flex_l	arm_add_l	arm_rot_l	elbow_flex_l	pro_sup_l	wrist_flex_l	wrist_dev_l
1.100000	-1.461085	-3.041972	84.624271	0.255880	0.901810	0.696334	18.008958	-0.875955	2.876902	25.654179	0.447750	42.500442	-2.583757	0.000000	12.817545	3.295403	3.226793	16.798092	0.293182	37.490814	-6.507244	0.000000	-0.038978	-0.421957	1.575860	-0.072387	-0.561203	1.674352	-0.064038	-1.025946	1.674352	-0.044548	-1.025946	1.378878	-0.036195	-0.860454	1.280387	-0.022272	-0.653611	1.181895	-0.278419	-4.773260	8.764463	0.000000	0.000000	17.003079	10.107925	-4.953561	51.466993	-40.676580	-19.202754	134.739428	82.643801	-9.709873	16.969361	67.823339	-30.420217	-8.310147	127.593332	87.110798	-17.708564	0.560057
1.116667	-1.027348	-2.771232	84.416873	0.255557	0.906026	0.695101	16.443948	-0.634584	2.318466	24.261573	0.423444	40.832714	-2.526391	0.000000	11.276256	3.011498	3.660508	15.383690	0.268496	35.451035	-8.370442	0.000000	-0.036680	-0.354753	1.550162	-0.068118	-0.471822	1.647047	-0.060261	-0.862547	1.647047	-0.041921	-0.862547	1.356392	-0.034061	-0.723413	1.259506	-0.020959	-0.549513	1.162621	-0.262000	-4.013039	8.621535	0.000000	0.000000	16.698865	9.455481	-3.903780	57.490114	-42.476249	-15.354158	131.249293	82.189098	-10.084934	13.707519	72.528808	-31.276948	-7.576219	126.211812	86.726385	-17.286367	1.502874
1.133333	-0.663391	-2.570648	84.212759	0.255327	0.909487	0.694202	15.154091	-0.416841	1.887776	23.178845	0.404547	39.329011	-2.506707	0.000000	10.090547	2.770906	3.964031	14.398328	0.251298	33.674463	-10.113890	0.000000	-0.032760	-0.298675	1.543662	-0.060839	-0.397238	1.640140	-0.053821	-0.726199	1.640140	-0.037441	-0.726199	1.350704	-0.030421	-0.609058	1.254225	-0.018719	-0.462648	1.157746	-0.234001	-3.378673	8.585382	0.000000	0.000000	16.602249	8.711677	-3.078581	63.087780	-43.861599	-11.907689	128.100613	81.940861	-10.129334	11.068325	76.890195	-31.825506	-6.846631	124.947662	86.166978	-16.835872	2.503525
1.150000	-0.424084	-2.420112	84.017794	0.255296	0.912075	0.693651	14.180095	-0.281275	1.577985	22.470091	0.392177	38.082568	-2.502203	0.000000	9.271895	2.591475	4.009754	13.870971	0.242094	32.263600	-11.531299	0.000000	-0.031261	-0.264292	1.563208	-0.058055	-0.351509	1.660908	-0.051359	-0.642600	1.660908	-0.035729	-0.642600	1.367807	-0.029029	-0.538945	1.270106	-0.017863	-0.409389	1.172406	-0.223297	-2.989728	8.694092	0.000000	0.000000	16.703221	7.963771	-2.654896	67.915431	-44.737673	-9.143892	125.500865	81.891646	-9.843186	9.235307	80.729523	-32.084174	-6.008593	123.848896	85.488966	-16.550086	3.296407
1.166667	-0.296587	-2.322246	83.819942	0.255472	0.913691	0.693442	13.549192	-0.187999	1.475195	22.150912	0.386606	37.135559	-2.638480	0.000000	8.859956	2.488085	3.915660	13.848526	0.241702	31.276092	-12.752260	0.000000	-0.030875	-0.248950	1.606954	-0.057338	-0.331103	1.707389	-0.050725	-0.605296	1.707389	-0.035287	-0.605296	1.406085	-0.028671	-0.507658	1.305650	-0.017642	-0.385623	1.205216	-0.220539	-2.816167	8.937398	0.000000	0.000000	16.936187	7.245071	-2.561311	71.734860	-45.063877	-7.160091	123.593000	82.082110	-9.232083	8.255396	83.760021	-32.088029	-5.194343	123.064887	84.638917	-16.279677	4.018272
1.183333	-0.307491	-2.255383	83.644769	0.255919	0.914350	0.693488	13.244026	-0.163306	1.588707	22.215255	0.387729	36.553480	-2.942846	0.000000	8.818197	2.480558	3.660627	14.293784	0.249474	30.784965	-13.650484	0.000000	-0.033867	-0.258508	1.672877	-0.062895	-0.343816	1.777432	-0.055640	-0.628536	1.777432	-0.038707	-0.628536	1.463767	-0.031449	-0.527150	1.359212	-0.019352	-0.400429	1.254658	-0.241909	-2.924295	9.304038	0.000000	0.000000	17.248043	6.644432	-2.895954	74.253153	-44.781084	-6.077876	122.495634	82.388349	-8.481345	8.148454	85.827755	-31.881999	-4.397110	122.609300	83.802691	-15.981734	4.452988
1.200000	-0.452594	-2.261174	83.476900	0.256632	0.913931	0.693771	13.333752	-0.201346	1.895038	22.681685	0.395870	36.389249	-3.346920	0.000000	9.211115	2.551122	3.224300	15.239483	0.265979	30.841619	-14.172340	0.000000	-0.032332	-0.291275	1.760056	-0.060044	-0.387396	1.870059	-0.053119	-0.708207	1.870059	-0.036952	-0.708207	1.540049	-0.030024	-0.593969	1.430045	-0.018475	-0.451185	1.320042	-0.230946	-3.294964	9.788902	0.000000	0.000000	17.613711	6.173202	-3.590456	75.311877	-43.919662	-5.951394	122.269285	82.716907	-7.637496	8.911996	86.787928	-31.523305	-3.664681	122.526053	83.036579	-15.664828	4.542245
1.216667	-0.669714	-2.279009	83.336418	0.257533	0.912541	0.694157	13.712470	-0.233382	2.428172	23.483742	0.409869	36.632994	-3.912595	0.000000	9.935074	2.674827	2.746769	16.626636	0.290190	31.445430	-14.377945	0.000000	-0.034716	-0.337730	1.858629	-0.064471	-0.449180	1.974793	-0.057035	-0.821156	1.974793	-0.039677	-0.821156	1.626300	-0.032237	-0.688698	1.510136	-0.019837	-0.523143	1.393972	-0.247973	-3.820464	10.337136	0.000000	0.000000	18.002675	5.807279	-4.548967	74.851989	-42.572534	-6.688890	122.929647	83.087659	-6.987106	10.523452	86.521410	-30.996806	-3.164790	122.868158	82.446402	-15.180590	4.425512
1.233333	-0.939764	-2.351798	83.242264	0.258516	0.910083	0.694683	14.438573	-0.289519	3.028173	24.621335	0.429723	37.316487	-4.399777	0.000000	11.040126	2.822586	2.173313	18.450671	0.322025	32.600302	-14.108316	0.000000	-0.035454	-0.393142	1.958719	-0.065842	-0.522879	2.081139	-0.058248	-0.955885	2.081139	-0.040521	-0.955885	1.713879	-0.032923	-0.801695	1.591459	-0.020259	-0.608977	1.469040	-0.253247	-4.447300	10.893810	0.000000	0.000000	18.468803	5.518967	-5.660094	72.965512	-40.833118	-8.331540	124.449110	83.596969	-6.212034	12.920306	85.066754	-30.346890	-2.903590	123.604616	82.052818	-14.705562	4.023154
